<svg width="251" height="60" viewBox="0 0 251 60" fill="none" xmlns="http://www.w3.org/2000/svg">
<path d="M23.3923 38.0425C22.8853 38.0436 22.386 37.9266 21.94 37.7022C19.2236 36.3671 16.8463 34.5053 14.9682 32.2423C13.0902 29.9793 11.755 27.3677 11.0528 24.5835C10.3506 21.7994 10.2977 18.9074 10.8976 16.1026C11.4975 13.2977 12.7363 10.6453 14.5304 8.32399C16.3246 6.0027 18.6324 4.06655 21.2983 2.64608C23.9642 1.22561 26.9262 0.353836 29.9846 0.0895287C33.043 -0.174779 36.1267 0.174527 39.0278 1.1139C41.929 2.05326 44.5801 3.56086 46.8024 5.53504C47.3993 6.06468 47.7458 6.79341 47.7656 7.56091C47.7855 8.32841 47.4771 9.07181 46.9082 9.62758C46.3394 10.1833 45.5567 10.5059 44.7324 10.5244C43.9081 10.5429 43.1097 10.2557 42.5128 9.72608C41.0715 8.38853 39.3575 7.33282 37.4715 6.62105C35.5856 5.90929 33.5659 5.55583 31.5311 5.58147C29.4963 5.60711 27.4876 6.01134 25.6231 6.77037C23.7585 7.52939 22.0758 8.6279 20.6739 10.0013C19.272 11.3747 18.1792 12.9952 17.4597 14.7676C16.7403 16.54 16.4087 18.4284 16.4846 20.3218C16.5604 22.2152 17.0421 24.0754 17.9014 25.793C18.7606 27.5105 19.98 29.0508 21.4879 30.3231C22.4955 31.2133 23.6279 31.9725 24.8542 32.5798C25.4677 32.8839 25.9544 33.3702 26.2369 33.9613C26.5195 34.5525 26.5817 35.2147 26.4137 35.8426C26.2456 36.4704 25.857 37.028 25.3095 37.4266C24.7621 37.8252 24.0873 38.042 23.3923 38.0425V38.0425ZM43.8978 54.5022C43.1501 54.4962 42.4297 54.24 41.868 53.7805C41.3063 53.321 40.9408 52.6887 40.8381 51.9991C40.7355 51.3095 40.9026 50.6085 41.3089 50.0241C41.7152 49.4397 42.3337 49.0108 43.0514 48.8156C45.0634 48.3811 46.9597 47.5709 48.6255 46.434C50.2913 45.2972 51.6921 43.8574 52.7429 42.2019C53.7936 40.5463 54.4726 38.7094 54.7388 36.8024C55.0049 34.8953 54.8525 32.9579 54.291 31.1073C53.7294 29.2566 52.7703 27.5314 51.4718 26.036C50.1733 24.5405 48.5623 23.306 46.7364 22.4072C44.9105 21.5084 42.9077 20.964 40.8492 20.8069C38.7907 20.6498 36.7194 20.8833 34.7607 21.4932C33.382 21.8591 32.0646 22.4016 30.8462 23.1052C30.4989 23.3051 30.1126 23.4394 29.7096 23.5003C29.3065 23.5613 28.8945 23.5477 28.4971 23.4604C28.0996 23.3731 27.7246 23.2137 27.3933 22.9914C27.062 22.7692 26.7809 22.4883 26.5662 22.1649C26.3515 21.8415 26.2073 21.4819 26.1418 21.1066C26.0764 20.7313 26.091 20.3477 26.1847 19.9776C26.2785 19.6076 26.4497 19.2583 26.6884 18.9499C26.9271 18.6414 27.2288 18.3797 27.5761 18.1798C30.1868 16.6557 33.119 15.6722 36.1738 15.2961C39.2286 14.92 42.3346 15.16 45.281 16C48.2274 16.84 50.9453 18.2602 53.2503 20.1643C55.5553 22.0684 57.3935 24.4119 58.6401 27.0357C59.8867 29.6595 60.5127 32.5023 60.4754 35.3712C60.4382 38.24 59.7386 41.0679 58.4243 43.6629C57.1099 46.2579 55.2114 48.5593 52.8577 50.411C50.504 52.2627 47.75 53.6213 44.7826 54.3947C44.494 54.4662 44.1965 54.5024 43.8978 54.5022ZM21.5072 52.8992C18.2586 52.8997 15.0522 52.2146 12.1289 50.8954C9.20559 49.5763 6.6414 47.6574 4.62903 45.2829C2.61665 42.9085 1.20844 40.1402 0.510215 37.1862C-0.188012 34.2322 -0.158095 31.1693 0.597718 28.2276C0.691184 27.8577 0.861974 27.5086 1.10034 27.2002C1.3387 26.8918 1.63997 26.6302 1.98694 26.4302C2.33392 26.2302 2.7198 26.0958 3.12256 26.0346C3.52532 25.9735 3.93707 25.9868 4.3343 26.0738C4.73153 26.1609 5.10646 26.3199 5.43768 26.5418C5.7689 26.7638 6.04994 27.0443 6.26473 27.3673C6.47952 27.6904 6.62387 28.0497 6.68953 28.4247C6.75519 28.7997 6.74088 29.1831 6.64742 29.5529C6.13412 31.5328 6.08357 33.5923 6.4992 35.5919C6.91482 37.5916 7.78692 39.4848 9.05648 41.1434C10.326 42.802 11.9634 44.1874 13.8579 45.2057C15.7523 46.2241 17.8596 46.8516 20.0371 47.0459C22.2146 47.2403 24.4115 46.9968 26.4792 46.3321C28.5469 45.6673 30.4371 44.5968 32.0219 43.1929C33.6067 41.789 34.8492 40.0845 35.6652 38.1948C36.4812 36.305 36.8517 34.2741 36.7516 32.2395C36.7314 31.4796 37.0329 30.7428 37.5911 30.1881C38.1493 29.6335 38.9194 29.3054 39.7351 29.2749C40.5508 29.2443 41.3467 29.5136 41.951 30.0248C42.5553 30.5359 42.9194 31.2477 42.9648 32.0067C43.0796 34.6358 42.6369 37.2601 41.6622 39.7299C40.6874 42.1997 39.1996 44.4664 37.2838 46.4007C35.368 48.3351 33.0617 49.899 30.4966 51.0033C27.9316 52.1075 25.158 52.7305 22.3343 52.8365H21.5264L21.5072 52.8992Z" fill="#AE0000"/>
<path d="M244.875 24.5283C244.868 24.1434 244.95 23.7617 245.115 23.4089C245.268 23.0713 245.491 22.7652 245.772 22.5085C246.053 22.2518 246.385 22.0495 246.751 21.9134C247.305 21.6987 247.915 21.6403 248.505 21.7454C249.095 21.8504 249.638 22.1144 250.069 22.5044C250.348 22.7616 250.573 23.0654 250.732 23.4C250.897 23.7501 250.982 24.1282 250.982 24.5104C250.981 24.8983 250.896 25.2821 250.732 25.6388C250.579 25.9763 250.353 26.281 250.069 26.5343C249.798 26.796 249.47 27.0006 249.107 27.1343C248.366 27.421 247.534 27.427 246.789 27.151C246.043 26.875 245.443 26.3388 245.115 25.6567C244.949 25.3011 244.867 24.9162 244.875 24.5283V24.5283ZM245.366 24.5283C245.368 24.853 245.433 25.1746 245.558 25.4776C245.684 25.7649 245.874 26.0243 246.116 26.2388C246.35 26.4527 246.624 26.6256 246.924 26.7492C247.245 26.8671 247.588 26.9278 247.934 26.9283C248.272 26.9328 248.607 26.8732 248.92 26.7531C249.232 26.6331 249.515 26.455 249.751 26.2298C250.114 25.8807 250.36 25.4403 250.457 24.9629C250.555 24.4855 250.5 23.992 250.3 23.5432C250.173 23.2581 249.987 22.9993 249.751 22.782C249.517 22.5658 249.24 22.3953 248.934 22.2805C248.631 22.1566 248.303 22.0926 247.972 22.0925C247.625 22.0918 247.282 22.1557 246.962 22.2805C246.662 22.4041 246.388 22.5771 246.154 22.791C245.913 23.0055 245.723 23.2648 245.596 23.5522C245.452 23.8604 245.373 24.192 245.366 24.5283V24.5283ZM246.799 22.8985H248.107C248.445 22.8729 248.783 22.9516 249.068 23.1223C249.174 23.2128 249.256 23.3241 249.309 23.4481C249.363 23.5721 249.386 23.7055 249.376 23.8388C249.387 23.9582 249.368 24.0784 249.322 24.1901C249.275 24.3019 249.202 24.4022 249.107 24.4835C248.918 24.627 248.686 24.7143 248.443 24.7343L249.453 26.1761H248.924L247.962 24.7701H247.337V26.1761H246.847L246.799 22.8985ZM247.289 24.3582H248.251C248.357 24.3481 248.46 24.3239 248.559 24.2865C248.646 24.2603 248.721 24.2064 248.77 24.1343C248.825 24.0411 248.851 23.9359 248.847 23.8298C248.849 23.7364 248.826 23.6441 248.78 23.5611C248.733 23.4918 248.667 23.4359 248.588 23.4C248.509 23.3655 248.424 23.3443 248.338 23.3373H247.299L247.289 24.3582ZM98.0665 41.2746C95.7317 42.1167 93.251 42.5538 90.7472 42.5641C82.9759 42.5641 76.6376 37.1104 76.6376 28.9164C76.6376 21.0537 82.4084 15.2865 91.0069 15.2865C93.3969 15.2725 95.7566 15.785 97.8933 16.782C97.9646 16.8229 98.0439 16.8501 98.1265 16.8623C98.2092 16.8745 98.2936 16.8713 98.375 16.853C98.4563 16.8347 98.533 16.8016 98.6005 16.7556C98.6681 16.7096 98.7252 16.6517 98.7686 16.585C98.8162 16.5017 98.8456 16.4104 98.8551 16.3164L99.1629 12.8149C99.1769 12.685 99.1451 12.5544 99.0722 12.4429C98.9993 12.3314 98.8893 12.245 98.759 12.197C96.214 11.2832 93.5033 10.8362 90.776 10.8806C79.3403 10.8806 70.9727 18.0447 70.9727 28.791C70.9727 39.8776 78.869 46.9791 90.728 46.9791C93.4674 47.0342 96.1976 46.665 98.807 45.8865C98.9368 45.8431 99.0472 45.7604 99.1204 45.6516C99.1937 45.5428 99.2256 45.4142 99.211 45.2865L98.9994 41.7671C98.9895 41.6111 98.9146 41.4649 98.7906 41.3595C98.6667 41.2542 98.5035 41.198 98.3358 41.2029C98.2415 41.2087 98.1497 41.2331 98.0665 41.2746ZM112.157 20.2835C104.462 20.2835 99.3456 25.6567 99.3456 33.1701C99.3456 41.4537 103.789 46.9791 113.523 46.9791C116.348 47.0146 119.15 46.4959 121.746 45.4567C121.864 45.4111 121.966 45.3342 122.037 45.2355C122.109 45.1368 122.148 45.0206 122.15 44.9014V41.7223C122.15 41.5656 122.083 41.4153 121.964 41.3044C121.845 41.1936 121.683 41.1313 121.515 41.1313C121.389 41.1127 121.26 41.1348 121.15 41.194C118.852 42.3777 116.29 43.0462 113.667 43.1462C111.368 43.1586 109.152 42.3473 107.478 40.8803C105.804 39.4133 104.8 37.4029 104.674 35.2656C104.671 35.1868 104.686 35.1083 104.716 35.0346C104.746 34.9609 104.791 34.8934 104.849 34.836C104.907 34.7787 104.977 34.7325 105.054 34.7002C105.131 34.6679 105.215 34.65 105.299 34.6477H123.573C123.741 34.6478 123.902 34.587 124.022 34.4784C124.143 34.3697 124.213 34.2216 124.218 34.0656C124.035 26.1582 121.044 20.2835 112.118 20.2835H112.157ZM118.168 31.1641H105.405C105.24 31.1642 105.081 31.1044 104.963 30.9974C104.844 30.8904 104.775 30.7446 104.77 30.591V30.5014C105.318 27.3582 107.396 24.0895 112.013 24.0895C116.129 24.0895 118.543 26.9373 118.803 30.5462C118.805 30.625 118.791 30.7035 118.761 30.7772C118.731 30.8509 118.686 30.9184 118.628 30.9758C118.57 31.0332 118.5 31.0794 118.423 31.1117C118.346 31.144 118.262 31.1618 118.178 31.1641H118.168ZM140.472 20.2656C136.625 20.2656 133.018 22.0567 131.508 24.9223H131.412V21.4925C131.41 21.3332 131.341 21.181 131.221 21.0675C131.101 20.954 130.939 20.8881 130.768 20.8835H127.161C127.076 20.8824 126.992 20.8967 126.913 20.9258C126.835 20.9548 126.763 20.998 126.702 21.0529C126.642 21.1078 126.593 21.1733 126.559 21.2456C126.526 21.318 126.508 21.3958 126.507 21.4746V45.7611C126.507 45.9203 126.575 46.0729 126.696 46.1854C126.816 46.2979 126.98 46.3611 127.151 46.3611H130.854C131.022 46.3565 131.181 46.2912 131.297 46.1792C131.414 46.0672 131.479 45.9172 131.479 45.7611V34.5582C131.479 28.3701 134.066 24.0716 139.828 24.0716C144.204 24.3223 145.598 27.2149 145.598 33.1791V45.7611C145.603 45.9219 145.676 46.0745 145.799 46.1865C145.923 46.2986 146.089 46.3612 146.262 46.3611H150.109C150.191 46.36 150.272 46.3438 150.348 46.3134C150.423 46.2831 150.491 46.2392 150.549 46.1843C150.606 46.1295 150.651 46.0646 150.681 45.9935C150.711 45.9225 150.726 45.8465 150.725 45.7701V31.2268C150.667 24.3671 147.512 20.2656 140.472 20.2656V20.2656ZM169.326 42.7074C168.516 43.0221 167.645 43.1805 166.768 43.1731C164.45 43.1731 162.536 41.5701 162.536 38.6059V25.2716C162.533 25.1164 162.596 24.9664 162.711 24.8541C162.827 24.7418 162.985 24.6763 163.151 24.6716H169.134C169.304 24.6716 169.468 24.6084 169.589 24.4959C169.71 24.3833 169.778 24.2307 169.778 24.0716V21.4925C169.776 21.3341 169.707 21.1828 169.587 21.0708C169.466 20.9588 169.304 20.8948 169.134 20.8925H163.151C162.988 20.8925 162.831 20.8321 162.716 20.7246C162.601 20.6171 162.536 20.4714 162.536 20.3194V14.3283C162.536 14.1692 162.468 14.0166 162.347 13.904C162.226 13.7915 162.062 13.7283 161.891 13.7283C161.828 13.7189 161.763 13.7189 161.699 13.7283L157.938 14.8567C157.804 14.8885 157.684 14.9613 157.599 15.0635C157.513 15.1657 157.467 15.2914 157.467 15.4208V20.2925C157.468 20.3678 157.454 20.4425 157.424 20.5125C157.394 20.5825 157.35 20.6463 157.294 20.7004C157.237 20.7545 157.17 20.7977 157.096 20.8275C157.022 20.8574 156.942 20.8734 156.861 20.8746H152.052C151.884 20.8832 151.726 20.9491 151.607 21.0599C151.488 21.1706 151.417 21.3182 151.408 21.4746V24.0805C151.41 24.239 151.479 24.3902 151.599 24.5023C151.719 24.6143 151.882 24.6782 152.052 24.6805H156.957C157.123 24.6805 157.282 24.7419 157.399 24.851C157.517 24.9602 157.582 25.1083 157.582 25.2626V39.591C157.582 44.6865 160.833 47.0059 166.046 47.0059C167.352 46.9724 168.647 46.7705 169.893 46.4059C170.026 46.3741 170.143 46.3024 170.226 46.2018C170.31 46.1013 170.355 45.9778 170.355 45.8507V43.2985C170.378 43.1859 170.364 43.0695 170.316 42.9641C170.268 42.8586 170.188 42.7687 170.085 42.7056C169.982 42.6425 169.862 42.609 169.739 42.6093C169.616 42.6097 169.496 42.6438 169.393 42.7074H169.326ZM187.985 20.5343C187.069 20.3467 186.133 20.2565 185.196 20.2656C183.671 20.3418 182.198 20.8053 180.937 21.6057C179.675 22.4061 178.674 23.5128 178.04 24.8059H177.982V21.4925C177.98 21.3332 177.911 21.181 177.791 21.0675C177.671 20.954 177.509 20.8881 177.338 20.8835H173.894C173.724 20.8835 173.56 20.9468 173.439 21.0593C173.318 21.1718 173.25 21.3244 173.25 21.4835V45.7611C173.25 45.9203 173.318 46.0729 173.439 46.1854C173.56 46.2979 173.724 46.3611 173.894 46.3611H177.674C177.842 46.3565 178.001 46.2912 178.118 46.1792C178.234 46.0672 178.3 45.9172 178.3 45.7611V34.7641C178.3 28.3701 181.262 24.3671 185.753 24.3671C186.431 24.3565 187.108 24.4318 187.764 24.591C187.929 24.6259 188.103 24.5984 188.247 24.5146C188.391 24.4307 188.494 24.2973 188.533 24.1432C188.538 24.0986 188.538 24.0536 188.533 24.0089V21.1164C188.536 20.9731 188.482 20.8339 188.38 20.7261C188.279 20.6184 188.138 20.5499 187.985 20.5343V20.5343ZM195.679 20.8656H191.909C191.738 20.8656 191.574 20.9288 191.453 21.0414C191.332 21.1539 191.265 21.3065 191.265 21.4656V45.7611C191.264 45.9172 191.33 46.0672 191.446 46.1792C191.563 46.2912 191.722 46.3565 191.89 46.3611H195.679C195.847 46.3565 196.006 46.2912 196.122 46.1792C196.239 46.0672 196.304 45.9172 196.304 45.7611V21.4925C196.31 21.4119 196.297 21.3312 196.268 21.2553C196.238 21.1794 196.192 21.1099 196.133 21.0512C196.073 20.9925 196.001 20.9457 195.922 20.9138C195.842 20.8819 195.756 20.8655 195.67 20.8656H195.679ZM195.987 9.8507H191.582C191.414 9.85063 191.253 9.91138 191.133 10.0201C191.013 10.1287 190.943 10.2768 190.938 10.4328V14.5522C190.937 14.7083 191.003 14.8582 191.119 14.9702C191.236 15.0823 191.395 15.1475 191.563 15.1522H195.987C196.158 15.1522 196.322 15.089 196.443 14.9765C196.563 14.8639 196.631 14.7113 196.631 14.5522V10.4686C196.631 10.3095 196.563 10.1569 196.443 10.0443C196.322 9.93182 196.158 9.86861 195.987 9.86861V9.8507ZM241.836 20.8656H238.104C237.965 20.8683 237.83 20.9111 237.718 20.9881C237.606 21.0651 237.523 21.1725 237.479 21.2955L230.111 41.9731H230.015L222.802 21.2955C222.762 21.1739 222.682 21.067 222.573 20.9899C222.464 20.9128 222.332 20.8694 222.196 20.8656H212.087C211.92 20.8657 211.759 20.8049 211.638 20.6963C211.518 20.5876 211.448 20.4395 211.443 20.2835V18.1074C211.443 14.6776 211.991 12.0716 216.339 12.0716C216.908 12.0747 217.477 12.1136 218.041 12.188C218.194 12.2233 218.356 12.2007 218.491 12.1251C218.626 12.0496 218.724 11.9273 218.762 11.785C218.767 11.7404 218.767 11.6954 218.762 11.6507L218.907 9.11637C218.911 8.96799 218.858 8.82299 218.758 8.70788C218.657 8.59277 218.515 8.51526 218.358 8.48951C217.432 8.35237 216.497 8.27755 215.559 8.26562C208.096 8.26563 206.374 12.3223 206.374 18.5104V20.3014C206.374 20.4575 206.309 20.6075 206.192 20.7195C206.076 20.8315 205.917 20.8968 205.749 20.9014H200.584C200.417 20.9014 200.256 20.9621 200.135 21.0708C200.015 21.1795 199.945 21.3275 199.94 21.4835V24.1074C199.942 24.2667 200.011 24.4189 200.131 24.5324C200.251 24.6459 200.413 24.7118 200.584 24.7164H205.788C205.87 24.714 205.952 24.7267 206.028 24.7538C206.105 24.7808 206.176 24.8217 206.235 24.8741C206.295 24.9265 206.343 24.9894 206.377 25.0591C206.411 25.1289 206.43 25.2041 206.432 25.2805V45.788C206.432 45.8668 206.449 45.9448 206.481 46.0176C206.513 46.0904 206.561 46.1566 206.621 46.2123C206.681 46.268 206.752 46.3122 206.83 46.3423C206.908 46.3725 206.992 46.388 207.076 46.388H210.837C210.922 46.388 211.005 46.3725 211.084 46.3423C211.162 46.3122 211.233 46.268 211.293 46.2123C211.353 46.1566 211.4 46.0904 211.432 46.0176C211.465 45.9448 211.481 45.8668 211.481 45.788V25.2895C211.481 25.1375 211.546 24.9917 211.662 24.8842C211.777 24.7768 211.934 24.7164 212.097 24.7164H218.195C218.33 24.7125 218.464 24.7485 218.576 24.8192C218.688 24.89 218.774 24.9919 218.82 25.1104L226.514 44.7044C226.925 45.5697 227.247 46.4693 227.476 47.391C227.476 47.9014 225.966 53.6597 221.475 53.6597C220.918 53.6586 220.363 53.5985 219.82 53.4806C219.657 53.4426 219.484 53.4666 219.34 53.5472C219.196 53.6278 219.092 53.7584 219.051 53.9104C219.046 53.9461 219.046 53.9822 219.051 54.0179L218.839 56.597C218.83 56.7436 218.878 56.8885 218.976 57.004C219.073 57.1196 219.213 57.1978 219.368 57.2238C220.319 57.3939 221.286 57.4749 222.254 57.4656C228.9 57.4656 230.91 51.8328 232.776 46.9164L242.422 21.6716C242.452 21.5975 242.465 21.5188 242.461 21.44C242.458 21.3612 242.437 21.2838 242.402 21.2122C242.366 21.1407 242.315 21.0764 242.253 21.0231C242.19 20.9698 242.117 20.9284 242.038 20.9014C241.972 20.8809 241.905 20.8689 241.836 20.8656V20.8656Z" fill="#AE0000"/>
</svg>
