<svg width="1460" height="288" viewBox="0 0 1460 288" fill="none" xmlns="http://www.w3.org/2000/svg">
<path fill-rule="evenodd" clip-rule="evenodd" d="M49.38 211C45.0523 212.164 41.1671 214.586 38.2155 217.958C35.2639 221.33 33.3785 225.502 32.7978 229.946C32.217 234.389 32.967 238.905 34.9528 242.923C36.9386 246.94 40.0711 250.279 43.9542 252.516C47.8373 254.754 52.2966 255.789 56.7683 255.492C61.24 255.195 65.5232 253.579 69.0763 250.848C72.6295 248.117 75.293 244.393 76.7301 240.148C78.1672 235.904 78.3133 231.328 77.15 227C76.3774 224.126 75.0463 221.432 73.2325 219.072C71.4188 216.713 69.158 214.734 66.5792 213.248C64.0004 211.762 61.1542 210.799 58.2032 210.413C55.2521 210.027 52.254 210.227 49.38 211V211Z" fill="#35393D"/>
<path fill-rule="evenodd" clip-rule="evenodd" d="M227 210.87C222.671 212.033 218.785 214.453 215.832 217.824C212.878 221.196 210.991 225.367 210.409 229.811C209.827 234.256 210.576 238.772 212.561 242.791C214.546 246.809 217.679 250.149 221.562 252.387C225.445 254.625 229.905 255.661 234.377 255.365C238.849 255.068 243.133 253.452 246.687 250.721C250.24 247.989 252.904 244.265 254.341 240.02C255.778 235.774 255.924 231.198 254.76 226.87C253.2 221.068 249.399 216.122 244.193 213.122C238.987 210.122 232.803 209.312 227 210.87V210.87Z" fill="#35393D"/>
<path fill-rule="evenodd" clip-rule="evenodd" d="M226.85 33.27C222.522 34.4342 218.637 36.8556 215.686 40.2278C212.734 43.6001 210.849 47.7718 210.268 52.2155C209.687 56.6593 210.437 61.1754 212.423 65.1929C214.409 69.2105 217.541 72.5489 221.424 74.7862C225.307 77.0235 229.767 78.0592 234.238 77.7622C238.71 77.4652 242.993 75.849 246.546 73.1178C250.099 70.3867 252.763 66.6633 254.2 62.4184C255.637 58.1736 255.783 53.5979 254.62 49.27C253.847 46.3959 252.516 43.702 250.703 41.3424C248.889 38.9828 246.628 37.0035 244.049 35.5178C241.47 34.032 238.624 33.0688 235.673 32.6831C232.722 32.2974 229.724 32.4968 226.85 33.27V33.27Z" fill="#35393D"/>
<path fill-rule="evenodd" clip-rule="evenodd" d="M49.25 33.4C44.9223 34.5642 41.0371 36.9856 38.0855 40.3578C35.1339 43.7301 33.2485 47.9018 32.6678 52.3455C32.087 56.7893 32.837 61.3054 34.8228 65.3229C36.8086 69.3405 39.9411 72.679 43.8242 74.9162C47.7073 77.1535 52.1666 78.1892 56.6383 77.8922C61.11 77.5952 65.3932 75.979 68.9463 73.2478C72.4994 70.5167 75.1629 66.7933 76.6 62.5484C78.0371 58.3036 78.1833 53.7279 77.02 49.4C76.2474 46.5258 74.9163 43.832 73.1025 41.4724C71.2888 39.1128 69.028 37.1336 66.4492 35.6478C63.8704 34.162 61.0242 33.1988 58.0732 32.8131C55.1221 32.4274 52.124 32.6268 49.25 33.4Z" fill="#35393D"/>
<path fill-rule="evenodd" clip-rule="evenodd" d="M73.07 122.27C68.7413 123.433 64.8546 125.853 61.9015 129.224C58.9484 132.596 57.0614 136.767 56.4793 141.211C55.8972 145.656 56.6461 150.172 58.6312 154.191C60.6164 158.209 63.7486 161.549 67.6318 163.787C71.515 166.025 75.9748 167.061 80.447 166.765C84.9192 166.468 89.203 164.852 92.7566 162.121C96.3102 159.389 98.974 155.665 100.411 151.42C101.848 147.175 101.994 142.598 100.83 138.27C99.2696 132.468 95.4687 127.522 90.2629 124.522C85.0572 121.522 78.8729 120.712 73.07 122.27V122.27Z" fill="#35393D"/>
<path fill-rule="evenodd" clip-rule="evenodd" d="M203.17 122C198.841 123.163 194.955 125.583 192.001 128.954C189.048 132.326 187.161 136.497 186.579 140.942C185.997 145.386 186.746 149.902 188.731 153.921C190.716 157.939 193.849 161.279 197.732 163.517C201.615 165.755 206.075 166.791 210.547 166.495C215.019 166.198 219.303 164.582 222.857 161.851C226.41 159.119 229.074 155.395 230.511 151.15C231.948 146.904 232.094 142.328 230.93 138C229.37 132.198 225.569 127.252 220.363 124.252C215.157 121.252 208.973 120.442 203.17 122V122Z" fill="#35393D"/>
<path fill-rule="evenodd" clip-rule="evenodd" d="M138.18 187.15C133.852 188.314 129.967 190.736 127.016 194.108C124.064 197.48 122.179 201.652 121.598 206.096C121.017 210.539 121.767 215.055 123.753 219.073C125.739 223.09 128.871 226.429 132.754 228.666C136.637 230.904 141.097 231.939 145.568 231.642C150.04 231.345 154.323 229.729 157.876 226.998C161.429 224.267 164.093 220.543 165.53 216.298C166.967 212.054 167.113 207.478 165.95 203.15C165.178 200.276 163.846 197.582 162.033 195.222C160.219 192.863 157.958 190.884 155.379 189.398C152.8 187.912 149.954 186.949 147.003 186.563C144.052 186.177 141.054 186.377 138.18 187.15V187.15Z" fill="#35393D"/>
<path fill-rule="evenodd" clip-rule="evenodd" d="M137.9 57.16C133.572 58.3242 129.687 60.7456 126.736 64.1178C123.784 67.4901 121.899 71.6618 121.318 76.1055C120.737 80.5493 121.487 85.0654 123.473 89.0829C125.459 93.1005 128.591 96.4389 132.474 98.6762C136.357 100.914 140.817 101.949 145.288 101.652C149.76 101.355 154.043 99.739 157.596 97.0078C161.149 94.2767 163.813 90.5533 165.25 86.3084C166.687 82.0636 166.833 77.4879 165.67 73.16C164.897 70.2859 163.566 67.592 161.753 65.2324C159.939 62.8728 157.678 60.8935 155.099 59.4078C152.52 57.922 149.674 56.9588 146.723 56.5731C143.772 56.1874 140.774 56.3868 137.9 57.16V57.16Z" fill="#35393D"/>
<path fill-rule="evenodd" clip-rule="evenodd" d="M192.06 66.08C193.743 72.317 196.837 78.0839 201.103 82.9353C205.368 87.7867 210.692 91.593 216.662 94.0602C222.633 96.5274 229.09 97.5896 235.537 97.1648C241.983 96.74 248.245 94.8395 253.84 91.61C255.306 90.7832 256.872 90.148 258.5 89.72C269.33 86.72 282.05 92.4 286.26 102.8C288.44 108.167 288.483 114.164 286.38 119.561C284.277 124.959 280.188 129.346 274.952 131.824C269.716 134.301 263.73 134.68 258.223 132.883C252.717 131.086 248.107 127.249 245.34 122.16C244.275 120.08 242.991 118.119 241.51 116.31C235.862 109.673 228.315 104.927 219.887 102.712C211.459 100.496 202.554 100.918 194.372 103.919C186.191 106.921 179.126 112.358 174.13 119.499C169.135 126.639 166.448 135.14 166.432 143.854C166.416 152.569 169.072 161.079 174.042 168.238C179.012 175.396 186.057 180.859 194.228 183.89C202.399 186.921 211.302 187.375 219.738 185.19C228.174 183.005 235.738 178.286 241.41 171.67C242.979 169.747 244.35 167.67 245.5 165.47C247.716 161.618 251.024 158.508 255.005 156.533C258.987 154.559 263.464 153.807 267.872 154.374C272.28 154.941 276.421 156.8 279.774 159.718C283.126 162.635 285.54 166.481 286.709 170.768C287.879 175.056 287.753 179.594 286.347 183.81C284.94 188.026 282.317 191.731 278.807 194.458C275.298 197.184 271.059 198.811 266.627 199.131C262.194 199.452 257.766 198.453 253.9 196.26V196.26C245.864 191.63 236.526 189.781 227.332 191C218.138 192.219 209.604 196.437 203.052 203C196.5 209.564 192.297 218.106 191.094 227.301C189.891 236.497 191.756 245.832 196.4 253.86V253.86C197.192 255.278 197.804 256.79 198.22 258.36C201.44 269.85 195.37 282.77 184.11 286.7C178.739 288.601 172.85 288.409 167.614 286.163C162.378 283.916 158.181 279.78 155.858 274.578C153.535 269.376 153.257 263.49 155.079 258.092C156.901 252.694 160.69 248.18 165.69 245.45C167.797 244.351 169.787 243.041 171.63 241.54C178.247 235.93 182.995 228.434 185.239 220.054C187.483 211.673 187.115 202.808 184.187 194.642C181.258 186.476 175.906 179.398 168.848 174.354C161.789 169.31 153.359 166.541 144.685 166.415C136.01 166.29 127.504 168.815 120.303 173.652C113.101 178.49 107.548 185.41 104.384 193.488C101.22 201.566 100.597 210.418 102.598 218.859C104.598 227.301 109.127 234.931 115.58 240.73C117.75 242.6 120.122 244.223 122.65 245.57C126.487 247.803 129.578 251.121 131.533 255.106C133.488 259.092 134.221 263.566 133.639 267.967C133.057 272.368 131.186 276.499 128.261 279.839C125.337 283.179 121.49 285.579 117.205 286.737C112.919 287.896 108.387 287.761 104.178 286.349C99.969 284.937 96.2719 282.312 93.5518 278.803C90.8317 275.295 89.2101 271.061 88.8913 266.633C88.5725 262.205 89.5706 257.782 91.76 253.92C96.3897 245.884 98.2385 236.546 97.0199 227.352C95.8012 218.158 91.5831 209.624 85.0197 203.072C78.4563 196.52 69.9145 192.317 60.7188 191.114C51.5232 189.911 42.1877 191.776 34.16 196.42V196.42C32.3975 197.351 30.522 198.05 28.58 198.5C24.4615 199.608 20.1139 199.532 16.037 198.279C11.96 197.027 8.31938 194.649 5.53359 191.419C2.7478 188.19 0.929974 184.24 0.28913 180.023C-0.351714 175.807 0.210444 171.495 1.91096 167.583C3.61148 163.672 6.38132 160.32 9.90201 157.913C13.4227 155.506 17.5513 154.141 21.8131 153.975C26.0748 153.81 30.2968 154.851 33.9935 156.978C37.6901 159.105 40.7115 162.232 42.71 166C43.7578 168.072 45.0287 170.024 46.5 171.82C52.1572 178.452 59.7119 183.189 68.1454 185.394C76.5789 187.599 85.4856 187.165 93.6646 184.15C101.844 181.136 108.902 175.685 113.887 168.535C118.872 161.384 121.545 152.877 121.545 144.16C121.545 135.443 118.872 126.936 113.887 119.785C108.902 112.635 101.844 107.184 93.6646 104.17C85.4856 101.155 76.5789 100.721 68.1454 102.926C59.7119 105.131 52.1572 109.868 46.5 116.5C44.9465 118.407 43.5865 120.464 42.44 122.64C40.2159 126.485 36.9036 129.585 32.9204 131.551C28.9373 133.516 24.4614 134.259 20.0569 133.685C15.6524 133.111 11.5163 131.247 8.16976 128.326C4.82319 125.405 2.4159 121.56 1.2512 117.274C0.0865086 112.987 0.21652 108.452 1.62486 104.24C3.0332 100.027 5.65686 96.3255 9.16525 93.6015C12.6736 90.8775 16.9098 89.2529 21.3399 88.9323C25.7701 88.6117 30.196 89.6095 34.06 91.8V91.8C42.0957 96.4297 51.4345 98.2786 60.628 97.0599C69.8216 95.8412 78.3561 91.6231 84.9081 85.0597C91.4601 78.4964 95.6633 69.9545 96.866 60.7588C98.0687 51.5632 96.2036 42.2276 91.56 34.2V34.2C90.8021 32.8089 90.2146 31.3316 89.81 29.8C86.29 17.67 93.01 4.40001 105.16 0.940009C110.538 -0.601981 116.295 -0.100263 121.325 2.34859C126.355 4.79744 130.301 9.0203 132.404 14.2043C134.507 19.3883 134.618 25.1669 132.716 30.4278C130.813 35.6886 127.032 40.0599 122.1 42.7C120.013 43.7615 118.046 45.0421 116.23 46.52C109.675 52.0797 104.954 59.4919 102.688 67.7833C100.422 76.0748 100.716 84.8577 103.533 92.9787C106.349 101.1 111.556 108.179 118.469 113.287C125.382 118.395 133.679 121.293 142.269 121.6C150.859 121.906 159.341 119.608 166.601 115.007C173.861 110.405 179.56 103.716 182.949 95.8165C186.338 87.9172 187.258 79.1777 185.59 70.7457C183.921 62.3137 179.742 54.5834 173.6 48.57C170.948 46.0936 168.011 43.9417 164.85 42.16C161.656 40.2641 158.978 37.6123 157.05 34.438C155.122 31.2637 154.004 27.6641 153.794 23.9561C153.584 20.2481 154.288 16.5453 155.846 13.1737C157.403 9.80196 159.765 6.86471 162.724 4.62038C165.683 2.37606 169.149 0.89346 172.815 0.303069C176.482 -0.287321 180.238 0.0325952 183.752 1.23466C187.266 2.43672 190.43 4.48408 192.967 7.19656C195.504 9.90905 197.335 13.2035 198.3 16.79C199.947 22.5976 199.228 28.821 196.3 34.1V34.1C193.528 38.8948 191.731 44.1906 191.014 49.6825C190.296 55.1744 190.672 60.754 192.12 66.1L192.06 66.08Z" fill="#02BFF1"/>
<path d="M497.73 182.22C498.613 183.053 499.309 184.064 499.771 185.186C500.233 186.309 500.451 187.517 500.41 188.73C500.44 189.918 500.216 191.099 499.754 192.194C499.292 193.289 498.602 194.272 497.73 195.08C495.93 196.766 493.536 197.672 491.07 197.6H441.33C440.096 197.626 438.87 197.402 437.725 196.942C436.58 196.482 435.54 195.795 434.668 194.922C433.795 194.05 433.108 193.01 432.648 191.865C432.188 190.72 431.964 189.494 431.99 188.26V99.8C431.961 98.5589 432.191 97.3253 432.666 96.1784C433.142 95.0315 433.851 93.9966 434.75 93.14C435.68 92.2504 436.778 91.5551 437.98 91.095C439.182 90.6348 440.464 90.4189 441.75 90.46C442.97 90.4437 444.181 90.6725 445.312 91.1329C446.442 91.5932 447.468 92.2758 448.33 93.14C449.229 93.9966 449.938 95.0315 450.414 96.1784C450.889 97.3253 451.119 98.5589 451.09 99.8V179.69H491.03C492.258 179.65 493.482 179.853 494.632 180.287C495.782 180.721 496.835 181.378 497.73 182.22V182.22Z" fill="#35393D"/>
<path d="M586.27 194.92C584.46 196.654 582.046 197.616 579.54 197.6C578.282 197.642 577.029 197.426 575.858 196.965C574.687 196.504 573.622 195.808 572.73 194.92C571.85 194.053 571.158 193.015 570.697 191.869C570.236 190.723 570.016 189.495 570.05 188.26V99.8C570.021 98.5589 570.251 97.3253 570.726 96.1784C571.202 95.0315 571.911 93.9966 572.81 93.14C573.74 92.2504 574.838 91.5551 576.04 91.095C577.242 90.6348 578.524 90.4189 579.81 90.46C581.03 90.4437 582.241 90.6725 583.372 91.1329C584.502 91.5932 585.528 92.2758 586.39 93.14C587.289 93.9966 587.998 95.0315 588.474 96.1784C588.949 97.3253 589.179 98.5589 589.15 99.8V188.26C589.179 189.512 588.936 190.756 588.439 191.905C587.942 193.055 587.202 194.083 586.27 194.92V194.92Z" fill="#35393D"/>
<path d="M680.24 108.07V135H713.3C715.767 134.929 718.162 135.839 719.96 137.53C720.842 138.362 721.537 139.371 721.999 140.492C722.461 141.612 722.68 142.819 722.64 144.03C722.637 145.162 722.397 146.28 721.935 147.314C721.473 148.347 720.801 149.272 719.96 150.03C719.081 150.887 718.038 151.559 716.894 152.006C715.75 152.452 714.528 152.665 713.3 152.63H680.24V188.29C680.268 189.537 680.03 190.776 679.542 191.925C679.054 193.073 678.327 194.104 677.41 194.95C675.633 196.691 673.238 197.655 670.75 197.63C669.468 197.688 668.188 197.488 666.986 197.042C665.783 196.595 664.683 195.911 663.75 195.03C662.861 194.155 662.164 193.105 661.703 191.947C661.242 190.788 661.026 189.546 661.07 188.3V99.8C661.044 98.5664 661.268 97.3402 661.728 96.1953C662.188 95.0505 662.875 94.0105 663.748 93.138C664.621 92.2655 665.661 91.5784 666.805 91.1182C667.95 90.658 669.176 90.4341 670.41 90.46H720.15C722.616 90.3865 725.01 91.2926 726.81 92.98C727.692 93.8116 728.387 94.8211 728.849 95.9418C729.311 97.0624 729.53 98.2685 729.49 99.48C729.487 100.612 729.246 101.73 728.785 102.764C728.323 103.797 727.651 104.722 726.81 105.48C725.931 106.337 724.888 107.009 723.744 107.456C722.6 107.902 721.378 108.115 720.15 108.08L680.24 108.07Z" fill="#35393D"/>
<path d="M860.3 182.68C861.146 183.476 861.821 184.436 862.281 185.503C862.742 186.569 862.98 187.718 862.98 188.88C863.015 190.057 862.793 191.227 862.33 192.31C861.867 193.393 861.175 194.362 860.3 195.15C858.48 196.797 856.093 197.675 853.64 197.6H802.37C801.136 197.626 799.91 197.402 798.765 196.942C797.62 196.482 796.58 195.795 795.708 194.922C794.835 194.05 794.148 193.01 793.688 191.865C793.228 190.72 793.004 189.494 793.03 188.26V99.8C793.004 98.5664 793.228 97.3402 793.688 96.1953C794.148 95.0504 794.835 94.0105 795.708 93.138C796.58 92.2654 797.62 91.5784 798.765 91.1182C799.91 90.658 801.136 90.4341 802.37 90.46H853.64C856.109 90.3919 858.504 91.3053 860.3 93C861.182 93.8312 861.878 94.8407 862.34 95.9614C862.802 97.0821 863.02 98.2884 862.98 99.5C863.022 100.66 862.812 101.816 862.363 102.886C861.914 103.957 861.237 104.917 860.38 105.7C858.524 107.325 856.115 108.174 853.65 108.07H812.16V134.07H846.75C849.216 133.996 851.61 134.903 853.41 136.59C854.292 137.421 854.988 138.431 855.45 139.551C855.912 140.672 856.13 141.878 856.09 143.09C856.132 144.25 855.922 145.406 855.473 146.476C855.024 147.547 854.347 148.507 853.49 149.29C851.634 150.914 849.224 151.763 846.76 151.66H812.16V180H853.64C854.875 179.966 856.103 180.186 857.249 180.647C858.395 181.108 859.433 181.8 860.3 182.68V182.68Z" fill="#35393D"/>
<path d="M1015.26 171.81C1010.97 180.025 1004.55 186.934 996.67 191.81C988.592 196.617 979.365 199.155 969.965 199.155C960.564 199.155 951.338 196.617 943.26 191.81C935.386 186.947 928.984 180.033 924.74 171.81C920.363 163.204 918.082 153.685 918.082 144.03C918.082 134.375 920.363 124.856 924.74 116.25C928.984 108.027 935.386 101.113 943.26 96.25C951.338 91.4426 960.564 88.9051 969.965 88.9051C979.365 88.9051 988.592 91.4426 996.67 96.25C1004.55 101.126 1010.97 108.035 1015.26 116.25C1019.69 124.841 1021.99 134.366 1021.99 144.03C1021.99 153.694 1019.69 163.219 1015.26 171.81V171.81ZM998 125.44C995.422 120.082 991.459 115.511 986.52 112.2C981.585 109.016 975.84 107.316 969.967 107.302C964.094 107.288 958.34 108.96 953.39 112.12C948.451 115.405 944.511 119.986 942 125.36C939.327 131.221 937.944 137.588 937.944 144.03C937.944 150.472 939.327 156.839 942 162.7C944.494 168.067 948.413 172.647 953.33 175.94C958.28 179.1 964.034 180.772 969.907 180.758C975.78 180.744 981.525 179.044 986.46 175.86C991.42 172.561 995.406 167.993 998 162.63C1000.72 156.809 1002.13 150.461 1002.13 144.035C1002.13 137.609 1000.72 131.261 998 125.44V125.44Z" fill="#02BFF1"/>
<path d="M1175.87 93C1176.79 93.8461 1177.51 94.8774 1178 96.0257C1178.49 97.1739 1178.73 98.4127 1178.7 99.66V188.27C1178.75 189.523 1178.54 190.772 1178.07 191.937C1177.61 193.103 1176.91 194.159 1176.02 195.038C1175.13 195.917 1174.06 196.6 1172.89 197.043C1171.71 197.486 1170.46 197.679 1169.21 197.61C1167.93 197.668 1166.65 197.468 1165.45 197.022C1164.24 196.575 1163.14 195.891 1162.21 195.01C1161.32 194.135 1160.62 193.085 1160.16 191.927C1159.7 190.768 1159.49 189.526 1159.53 188.28V126.59L1134.28 165.16C1133.29 166.361 1132.1 167.377 1130.76 168.16C1129.52 168.907 1128.08 169.256 1126.63 169.16C1125.23 169.248 1123.83 168.899 1122.63 168.16C1121.29 167.378 1120.09 166.362 1119.11 165.16L1093.86 125.21V188.27C1093.96 190.748 1093.08 193.166 1091.41 195C1090.58 195.866 1089.58 196.545 1088.48 196.994C1087.37 197.442 1086.17 197.649 1084.98 197.6C1083.8 197.635 1082.63 197.414 1081.55 196.951C1080.47 196.488 1079.5 195.795 1078.71 194.92C1077.06 193.1 1076.18 190.713 1076.26 188.26V99.65C1076.25 98.4166 1076.49 97.1943 1076.98 96.0613C1077.47 94.9282 1078.19 93.9094 1079.09 93.07C1079.98 92.1785 1081.05 91.4756 1082.22 91.0032C1083.39 90.5308 1084.64 90.2984 1085.9 90.32C1087.5 90.3379 1089.07 90.7318 1090.49 91.47C1091.91 92.1419 1093.12 93.177 1094.01 94.47L1127.37 145.74L1161.65 94.47C1162.49 93.2181 1163.62 92.1885 1164.94 91.47C1166.22 90.7294 1167.67 90.3332 1169.15 90.32C1170.39 90.3002 1171.62 90.5268 1172.78 90.9868C1173.93 91.4469 1174.98 92.1311 1175.87 93V93Z" fill="#02BFF1"/>
<path d="M1263.8 194.92C1261.99 196.654 1259.58 197.616 1257.07 197.6C1255.81 197.642 1254.56 197.426 1253.39 196.965C1252.22 196.504 1251.15 195.808 1250.26 194.92C1249.38 194.053 1248.69 193.015 1248.23 191.869C1247.77 190.723 1247.55 189.495 1247.58 188.26V99.8C1247.55 98.5589 1247.78 97.3253 1248.26 96.1784C1248.73 95.0315 1249.44 93.9966 1250.34 93.14C1251.27 92.2504 1252.37 91.5551 1253.57 91.095C1254.77 90.6348 1256.05 90.4189 1257.34 90.46C1258.56 90.4437 1259.77 90.6725 1260.9 91.1329C1262.03 91.5932 1263.06 92.2758 1263.92 93.14C1264.82 93.9966 1265.53 95.0315 1266 96.1784C1266.48 97.3253 1266.71 98.5589 1266.68 99.8V188.26C1266.71 189.512 1266.47 190.756 1265.97 191.905C1265.47 193.055 1264.73 194.083 1263.8 194.92V194.92Z" fill="#02BFF1"/>
<path d="M1421.43 103.48C1421.38 105.767 1420.57 107.972 1419.13 109.75C1418.42 110.754 1417.48 111.571 1416.39 112.13C1415.3 112.689 1414.09 112.974 1412.86 112.96C1411.04 112.937 1409.25 112.463 1407.66 111.58C1402.58 109.217 1397.04 108.014 1391.44 108.06C1384.93 107.907 1378.49 109.466 1372.77 112.58C1367.53 115.521 1363.28 119.937 1360.53 125.28C1357.59 131.086 1356.12 137.523 1356.24 144.03C1356.24 156.07 1359.48 165.2 1365.96 171.42C1372.44 177.64 1380.93 180.753 1391.44 180.76C1397.05 180.896 1402.61 179.689 1407.66 177.24C1409.19 176.499 1410.86 176.083 1412.56 176.02C1413.87 176.02 1415.16 176.324 1416.32 176.909C1417.49 177.494 1418.51 178.344 1419.29 179.39C1420.76 181.154 1421.57 183.374 1421.59 185.67C1421.61 187.235 1421.19 188.774 1420.37 190.11C1419.53 191.457 1418.3 192.522 1416.85 193.17C1408.97 197.142 1400.26 199.198 1391.44 199.17C1381.88 199.275 1372.44 197.098 1363.89 192.82C1355.57 188.608 1348.63 182.101 1343.89 174.07C1338.89 165.803 1336.39 155.803 1336.39 144.07C1336.24 134.27 1338.69 124.606 1343.51 116.07C1348.14 107.916 1354.95 101.213 1363.18 96.71C1371.86 91.9767 1381.61 89.5654 1391.49 89.71C1400.27 89.6479 1408.93 91.7063 1416.74 95.71C1418.2 96.3985 1419.43 97.5035 1420.26 98.8859C1421.09 100.268 1421.5 101.867 1421.43 103.48V103.48Z" fill="#02BFF1"/>
<path d="M1451 181.303C1448.93 181.303 1447.15 182.043 1445.68 183.524C1444.21 184.996 1443.48 186.775 1443.48 188.861C1443.48 190.962 1444.21 192.753 1445.67 194.234C1447.13 195.714 1448.91 196.454 1451 196.454C1453.1 196.454 1454.88 195.714 1456.34 194.234C1457.81 192.753 1458.54 190.962 1458.54 188.861C1458.54 186.775 1457.81 184.996 1456.34 183.524C1454.87 182.043 1453.09 181.303 1451 181.303ZM1459.78 188.861C1459.78 191.288 1458.92 193.362 1457.21 195.081C1455.5 196.801 1453.43 197.66 1451 197.66C1448.58 197.66 1446.51 196.801 1444.81 195.081C1443.11 193.37 1442.26 191.296 1442.26 188.861C1442.26 186.449 1443.12 184.387 1444.83 182.676C1446.53 180.972 1448.59 180.121 1451 180.121C1453.43 180.121 1455.5 180.972 1457.21 182.676C1458.92 184.379 1459.78 186.441 1459.78 188.861ZM1453.3 186.95C1453.3 186.25 1453.08 185.78 1452.65 185.541C1452.23 185.303 1451.55 185.183 1450.61 185.183H1449.17V188.67H1450.69C1451.41 188.67 1451.95 188.598 1452.31 188.455C1452.97 188.192 1453.3 187.691 1453.3 186.95ZM1450.84 184.025C1452.03 184.025 1452.91 184.14 1453.46 184.371C1454.46 184.785 1454.96 185.597 1454.96 186.807C1454.96 187.667 1454.64 188.3 1454.01 188.705C1453.68 188.92 1453.21 189.076 1452.62 189.171C1453.37 189.291 1453.93 189.605 1454.28 190.114C1454.63 190.624 1454.8 191.121 1454.8 191.607V192.311C1454.8 192.534 1454.81 192.773 1454.82 193.028C1454.84 193.282 1454.87 193.45 1454.91 193.529L1454.97 193.649H1453.38C1453.37 193.617 1453.36 193.585 1453.36 193.553C1453.35 193.521 1453.34 193.485 1453.33 193.446L1453.3 193.135V192.371C1453.3 191.257 1452.99 190.52 1452.39 190.162C1452.03 189.955 1451.4 189.852 1450.5 189.852H1449.17V193.649H1447.47V184.025H1450.84Z" fill="#00A6D1"/>
</svg>
